<?xml version="1.0" encoding="utf-8"?>
<!-- Generator: Adobe Illustrator 16.0.0, SVG Export Plug-In . SVG Version: 6.00 Build 0)  -->
<!DOCTYPE svg PUBLIC "-//W3C//DTD SVG 1.1//EN" "http://www.w3.org/Graphics/SVG/1.1/DTD/svg11.dtd">
<svg version="1.1" id="Layer_1" xmlns="http://www.w3.org/2000/svg" xmlns:xlink="http://www.w3.org/1999/xlink" x="0px" y="0px"
	 width="600px" height="400px" viewBox="0 0 600 400" enable-background="new 0 0 600 400" xml:space="preserve">
<circle fill="none" stroke="#FFFFFF" stroke-width="2" stroke-miterlimit="10" cx="390.989" cy="368.226" r="20.924"/>
<circle fill="none" stroke="#FFFFFF" stroke-width="2" stroke-miterlimit="10" cx="557.503" cy="368.226" r="20.923"/>
<path fill="none" stroke="#FFFFFF" stroke-width="2" stroke-miterlimit="10" d="M390.989,398c-16.443,0-29.775-13.332-29.775-29.775
	s13.332-29.775,29.775-29.775"/>
<path fill="none" stroke="#FFFFFF" stroke-miterlimit="10" d="M420.765,368.225"/>
<path fill="none" stroke="#FFFFFF" stroke-width="2" stroke-miterlimit="10" d="M557.503,338.449
	c16.444,0,29.775,13.332,29.775,29.775S573.947,398,557.503,398"/>
<path fill="none" stroke="#FFFFFF" stroke-miterlimit="10" d="M527.728,368.225"/>
<line fill="none" stroke="#FFFFFF" stroke-width="2" stroke-miterlimit="10" x1="390.989" y1="338.449" x2="557.503" y2="338.449"/>
<line fill="none" stroke="#FFFFFF" stroke-width="2" stroke-miterlimit="10" x1="390.989" y1="398" x2="557.503" y2="398"/>
<circle fill="none" stroke="#FFFFFF" stroke-width="4" stroke-miterlimit="10" cx="428.209" cy="368.226" r="7.444"/>
<circle fill="none" stroke="#FFFFFF" stroke-width="4" stroke-miterlimit="10" cx="520.284" cy="368.225" r="7.444"/>
<rect x="411.913" y="323.963" fill="none" stroke="#FFFFFF" stroke-width="2" stroke-miterlimit="10" width="124.667" height="13.68"/>
<rect x="435.653" y="312.696" fill="none" stroke="#FFFFFF" stroke-width="2" stroke-miterlimit="10" width="77.187" height="10.46"/>
<rect x="361.214" y="199.665" fill="none" stroke="#FFFFFF" stroke-width="2" stroke-miterlimit="10" width="113.032" height="113.032"/>
<polyline fill="none" stroke="#FFFFFF" stroke-width="2" stroke-miterlimit="10" points="512.84,312.696 587.278,312.696 
	587.278,256.181 512.84,256.181 "/>
<line fill="none" stroke="#FFFFFF" stroke-width="2" stroke-miterlimit="10" x1="474.246" y1="312.696" x2="512.84" y2="256.181"/>
<polyline fill="none" stroke="#FFFFFF" stroke-width="2" stroke-miterlimit="10" points="435.653,220.15 373.286,220.15 
	373.286,262.4 435.653,262.4 "/>
<path fill="none" stroke="#FFFFFF" stroke-width="2" stroke-miterlimit="10" d="M462.612,262.4"/>
<path fill="none" stroke="#FFFFFF" stroke-width="2" stroke-miterlimit="10" d="M435.653,262.4"/>
<path fill="none" stroke="#FFFFFF" stroke-width="2" stroke-miterlimit="10" d="M462.612,262.4"/>
<path fill="none" stroke="#FFFFFF" stroke-width="2" stroke-miterlimit="10" d="M462.612,241.276"/>
<path fill="none" stroke="#FFFFFF" stroke-width="2" stroke-miterlimit="10" d="M435.653,220.15"/>
<path fill="none" stroke="#FFFFFF" stroke-width="2" stroke-miterlimit="10" d="M462.612,241.276"/>
<path fill="none" stroke="#FFFFFF" stroke-width="2" stroke-miterlimit="10" d="M435.248,262.4"/>
<path fill="none" stroke="#FFFFFF" stroke-width="2" stroke-miterlimit="10" d="M435.248,220.15
	c11.669,0,21.126,9.458,21.126,21.126"/>
<line fill="none" stroke="#FFFFFF" stroke-width="2" stroke-miterlimit="10" x1="435.248" y1="262.4" x2="456.374" y2="262.4"/>
<line fill="none" stroke="#FFFFFF" stroke-width="2" stroke-miterlimit="10" x1="456.374" y1="262.4" x2="456.374" y2="241.276"/>
<line fill="none" stroke="#FFFFFF" stroke-width="2" stroke-miterlimit="10" x1="520.283" y1="256.181" x2="344.575" y2="17.544"/>
<line fill="none" stroke="#FFFFFF" stroke-width="2" stroke-miterlimit="10" x1="572.392" y1="255.46" x2="396.684" y2="16.825"/>
<line fill="none" stroke="#FFFFFF" stroke-width="2" stroke-miterlimit="10" x1="344.575" y1="17.544" x2="396.684" y2="17.544"/>
<rect x="283.153" y="4.482" fill="none" stroke="#FFFFFF" stroke-width="2" stroke-miterlimit="10" width="113.53" height="12.343"/>
<line fill="none" stroke="#FFFFFF" stroke-miterlimit="10" x1="296.834" y1="16.825" x2="296.834" y2="54.376"/>
<rect x="304.277" y="87.048" fill="none" stroke="#FFFFFF" stroke-width="2" stroke-miterlimit="10" width="34.641" height="84.274"/>
<rect x="231.044" y="135.769" fill="none" stroke="#FFFFFF" stroke-width="2" stroke-miterlimit="10" width="34.642" height="35.554"/>
<rect x="265.687" y="109.274" fill="none" stroke="#FFFFFF" stroke-width="2" stroke-miterlimit="10" width="37.115" height="62.049"/>
<line fill="none" stroke="#FFFFFF" stroke-miterlimit="10" x1="231.044" y1="135.769" x2="296.834" y2="54.376"/>
<line fill="none" stroke="#FFFFFF" stroke-miterlimit="10" x1="296.834" y1="54.376" x2="339.918" y2="87.048"/>
<rect x="368.042" y="22.855" transform="matrix(0.9501 0.3121 -0.3121 0.9501 30.5492 -118.3028)" fill="none" stroke="#FFFFFF" stroke-miterlimit="10" width="33.687" height="26.876"/>
<rect x="392.868" y="56.488" transform="matrix(0.9501 0.3121 -0.3121 0.9501 42.2791 -124.3593)" fill="none" stroke="#FFFFFF" stroke-miterlimit="10" width="33.689" height="26.876"/>
<rect x="417.644" y="89.828" transform="matrix(0.9501 0.3121 -0.3121 0.9501 53.9266 -130.4364)" fill="none" stroke="#FFFFFF" stroke-miterlimit="10" width="33.689" height="26.876"/>
<rect x="441.675" y="124.252" transform="matrix(0.9501 0.3121 -0.3121 0.9501 65.866 -136.2113)" fill="none" stroke="#FFFFFF" stroke-miterlimit="10" width="33.689" height="26.876"/>
<rect x="465.965" y="157.884" transform="matrix(0.9501 0.312 -0.312 0.9501 77.5685 -142.104)" fill="none" stroke="#FFFFFF" stroke-miterlimit="10" width="33.688" height="26.876"/>
<rect x="491.258" y="189.574" transform="matrix(0.95 0.3121 -0.3121 0.95 88.7397 -148.4373)" fill="none" stroke="#FFFFFF" stroke-miterlimit="10" width="33.689" height="26.877"/>
<rect x="516.192" y="223.998" transform="matrix(0.9501 0.3121 -0.3121 0.9501 100.7197 -154.49)" fill="none" stroke="#FFFFFF" stroke-miterlimit="10" width="33.689" height="26.876"/>
<line fill="none" x1="20.714" y1="399" x2="17.5" y2="399"/>
<line fill="none" stroke="#FFFFFF" stroke-width="2" stroke-miterlimit="10" x1="45.143" y1="398.679" x2="52.214" y2="398.679"/>
<line fill="none" stroke="#FFFFFF" stroke-width="2" stroke-miterlimit="10" x1="45.143" y1="398.679" x2="41.286" y2="394.179"/>
<line fill="none" stroke="#FFFFFF" stroke-width="2" stroke-miterlimit="10" x1="41.286" y1="394.179" x2="65.393" y2="377.145"/>
<line fill="none" stroke="#FFFFFF" stroke-width="2" stroke-miterlimit="10" x1="65.393" y1="377.145" x2="73.75" y2="358.715"/>
<line fill="none" stroke="#FFFFFF" stroke-width="2" stroke-miterlimit="10" x1="72.832" y1="360.741" x2="89.5" y2="377.145"/>
<line fill="none" stroke="#FFFFFF" stroke-width="2" stroke-miterlimit="10" x1="89.5" y1="377.145" x2="76.643" y2="398.679"/>
<line fill="none" stroke="#FFFFFF" stroke-width="2" stroke-miterlimit="10" x1="76.643" y1="398.679" x2="85.964" y2="398.679"/>
<line fill="none" stroke="#FFFFFF" stroke-width="2" stroke-miterlimit="10" x1="72.832" y1="360.741" x2="89.5" y2="326.143"/>
<line fill="none" stroke="#FFFFFF" stroke-width="2" stroke-miterlimit="10" x1="89.5" y1="326.143" x2="116.179" y2="336.168"/>
<line fill="none" stroke="#FFFFFF" stroke-width="2" stroke-miterlimit="10" x1="116.179" y1="336.168" x2="139" y2="336.168"/>
<line fill="none" stroke="#FFFFFF" stroke-width="2" stroke-miterlimit="10" x1="89.5" y1="326.143" x2="116.179" y2="326.143"/>
<line fill="none" stroke="#FFFFFF" stroke-width="2" stroke-miterlimit="10" x1="116.179" y1="326.143" x2="139" y2="319.715"/>
<ellipse transform="matrix(0.9748 0.2229 -0.2229 0.9748 72.4607 -13.1877)" fill="none" stroke="#FFFFFF" stroke-width="2" stroke-miterlimit="10" cx="94.643" cy="314.357" rx="5.143" ry="9.856"/>
<line fill="none" stroke="#FFFFFF" stroke-width="2" stroke-miterlimit="10" x1="89.5" y1="326.143" x2="91.639" y2="323.629"/>
<path fill="none" stroke="#FFFFFF" stroke-width="2" stroke-miterlimit="10" d="M283.556,325.722
	c0,39.918-32.36,72.278-72.278,72.278c-23.806,0-44.924-11.51-58.093-29.268C144.271,356.715,139,341.834,139,325.722
	c0-39.918,32.36-72.277,72.278-72.277S283.556,285.804,283.556,325.722z"/>
<line fill="none" stroke="#FFFFFF" stroke-width="2" stroke-miterlimit="10" x1="139" y1="325.722" x2="211.278" y2="325.723"/>
<line fill="none" stroke="#FFFFFF" stroke-width="2" stroke-miterlimit="10" x1="153.185" y1="368.732" x2="211.278" y2="325.723"/>
<line fill="none" stroke="#FFFFFF" stroke-width="2" stroke-miterlimit="10" x1="211.278" y1="325.723" x2="275.602" y2="358.715"/>
<line fill="none" stroke="#FFFFFF" stroke-width="2" stroke-miterlimit="10" x1="211.278" y1="325.723" x2="231.044" y2="256.181"/>
<line fill="none" stroke="#FFFFFF" stroke-width="2" stroke-miterlimit="10" x1="211.278" y1="325.723" x2="246.146" y2="262.4"/>
<path fill="none" stroke="#FFFFFF" stroke-width="2" stroke-miterlimit="10" d="M228.712,145.667"/>
<path opacity="0.2" fill="none" stroke="#FFFFFF" stroke-width="2" stroke-miterlimit="10" d="M353.666,61"/>
<path opacity="0.2" fill="none" stroke="#FFFFFF" stroke-width="2" stroke-miterlimit="10" d="M228.712,145.667"/>
<path opacity="0.6" fill="none" stroke="#FFFFFF" stroke-miterlimit="10" d="M102.181,35.903c-1.661,0.502-3.19,1.232-4.57,2.139
	c-6.602-9.6-18.877-14.287-30.624-10.732c-8.376,2.535-14.648,8.709-17.623,16.266c-1.151-0.402-2.433-0.462-3.688-0.082
	c-2.562,0.775-4.219,3.12-4.237,5.664c-0.849,0.142-1.699,0.333-2.544,0.589c-10.644,3.221-16.661,14.459-13.44,25.103
	s14.459,16.661,25.104,13.44c5.441-1.646,9.669-5.392,12.076-10.08c6.071,3.044,13.271,3.866,20.283,1.744
	c6.739-2.039,12.115-6.433,15.511-12.007c4.073,2.37,9.079,3.11,13.944,1.638c9.301-2.814,14.559-12.635,11.745-21.936
	C121.303,38.347,111.482,33.089,102.181,35.903z"/>
<path opacity="0.6" fill="none" stroke="#FFFFFF" stroke-miterlimit="10" d="M560.453,44.87c-1.678-0.447-3.361-0.63-5.012-0.585
	c-0.565-11.637-8.54-22.08-20.4-25.236c-8.457-2.25-17.039-0.297-23.544,4.565c-0.768-0.948-1.826-1.672-3.094-2.01
	c-2.588-0.688-5.229,0.435-6.582,2.588c-0.797-0.326-1.62-0.61-2.475-0.837c-10.746-2.859-21.774,3.535-24.634,14.281
	c-2.859,10.746,3.534,21.775,14.281,24.634c5.494,1.462,11.059,0.499,15.572-2.221c3.562,5.782,9.253,10.268,16.333,12.151
	c6.805,1.811,13.688,0.901,19.508-2.054c2.218,4.158,6.087,7.421,10.999,8.729c9.391,2.498,19.027-3.089,21.526-12.479
	C575.431,57.005,569.844,47.368,560.453,44.87z"/>
<path opacity="0.6" fill="none" stroke="#FFFFFF" stroke-miterlimit="10" d="M169.528,74.292c-0.863,0.036-1.69,0.198-2.468,0.465
	c-1.994-5.444-7.331-9.223-13.433-8.964c-4.351,0.185-8.139,2.385-10.508,5.659c-0.505-0.336-1.115-0.523-1.768-0.496
	c-1.332,0.057-2.42,0.981-2.744,2.206c-0.427-0.037-0.86-0.05-1.299-0.031c-5.529,0.235-9.821,4.908-9.586,10.437
	s4.908,9.82,10.438,9.586c2.827-0.12,5.328-1.402,7.068-3.364c2.549,2.219,5.918,3.506,9.561,3.352
	c3.501-0.149,6.637-1.602,8.964-3.868c1.669,1.646,3.991,2.623,6.519,2.516c4.832-0.206,8.582-4.289,8.376-9.12
	C178.443,77.836,174.36,74.085,169.528,74.292z"/>
</svg>
